<mxfile host="app.diagrams.net" modified="2024-02-09T16:19:18.700Z" agent="Mozilla/5.0 (Windows NT 10.0; Win64; x64) AppleWebKit/537.36 (KHTML, like Gecko) Chrome/121.0.0.0 Safari/537.36 Edg/121.0.0.0" etag="HSNtIf0lvMckTBk6mHJM" version="22.1.17" type="github">
  <diagram name="Page-1" id="dBN8vo7_r_SAYW0YeZtu">
    <mxGraphModel dx="1013" dy="588" grid="1" gridSize="12" guides="1" tooltips="1" connect="1" arrows="1" fold="1" page="1" pageScale="1" pageWidth="850" pageHeight="1100" math="0" shadow="0">
      <root>
        <mxCell id="0" />
        <mxCell id="1" parent="0" />
        <mxCell id="xDTaqTvU7wQpcwqBrBxM-1" value="" style="ellipse;whiteSpace=wrap;html=1;aspect=fixed;strokeColor=#432D57;fillColor=#171617;fontColor=#ffffff;" vertex="1" parent="1">
          <mxGeometry x="395" y="24" width="60" height="60" as="geometry" />
        </mxCell>
        <mxCell id="xDTaqTvU7wQpcwqBrBxM-2" value="" style="endArrow=classic;html=1;rounded=0;" edge="1" parent="1" source="xDTaqTvU7wQpcwqBrBxM-1" target="xDTaqTvU7wQpcwqBrBxM-3">
          <mxGeometry width="50" height="50" relative="1" as="geometry">
            <mxPoint x="400" y="390" as="sourcePoint" />
            <mxPoint x="430" y="220" as="targetPoint" />
          </mxGeometry>
        </mxCell>
        <mxCell id="xDTaqTvU7wQpcwqBrBxM-3" value="&lt;font style=&quot;font-size: 16px;&quot;&gt;Заглавная страница сайта&lt;/font&gt;" style="rounded=1;whiteSpace=wrap;html=1;" vertex="1" parent="1">
          <mxGeometry x="365" y="170" width="120" height="60" as="geometry" />
        </mxCell>
        <mxCell id="xDTaqTvU7wQpcwqBrBxM-6" value="&lt;font style=&quot;font-size: 15px;&quot;&gt;Заполнение полей для регистрации&lt;/font&gt;" style="rounded=1;whiteSpace=wrap;html=1;" vertex="1" parent="1">
          <mxGeometry x="516" y="330" width="120" height="60" as="geometry" />
        </mxCell>
        <mxCell id="xDTaqTvU7wQpcwqBrBxM-10" value="&lt;font style=&quot;font-size: 16px;&quot;&gt;Ввод логина/email-а&lt;br&gt;и пароля&lt;br&gt;&lt;/font&gt;" style="rounded=1;whiteSpace=wrap;html=1;" vertex="1" parent="1">
          <mxGeometry x="228" y="330" width="120" height="60" as="geometry" />
        </mxCell>
        <mxCell id="xDTaqTvU7wQpcwqBrBxM-13" value="" style="endArrow=classic;html=1;rounded=0;exitX=0.5;exitY=1;exitDx=0;exitDy=0;" edge="1" parent="1" source="xDTaqTvU7wQpcwqBrBxM-6" target="xDTaqTvU7wQpcwqBrBxM-44">
          <mxGeometry width="50" height="50" relative="1" as="geometry">
            <mxPoint x="396" y="470" as="sourcePoint" />
            <mxPoint x="576" y="480" as="targetPoint" />
          </mxGeometry>
        </mxCell>
        <mxCell id="xDTaqTvU7wQpcwqBrBxM-15" value="&lt;font style=&quot;font-size: 14px;&quot;&gt;[если данные неверны]&lt;/font&gt;" style="text;html=1;strokeColor=none;fillColor=none;align=center;verticalAlign=middle;whiteSpace=wrap;rounded=0;" vertex="1" parent="1">
          <mxGeometry x="348" y="372" width="60" height="30" as="geometry" />
        </mxCell>
        <mxCell id="xDTaqTvU7wQpcwqBrBxM-18" value="&lt;font style=&quot;font-size: 16px;&quot;&gt;Ввод логина/email-а&lt;br&gt;&lt;/font&gt;" style="rounded=1;whiteSpace=wrap;html=1;" vertex="1" parent="1">
          <mxGeometry x="228" y="490" width="120" height="60" as="geometry" />
        </mxCell>
        <mxCell id="xDTaqTvU7wQpcwqBrBxM-27" value="" style="curved=1;endArrow=classic;html=1;rounded=0;entryX=1;entryY=0.5;entryDx=0;entryDy=0;" edge="1" parent="1" target="xDTaqTvU7wQpcwqBrBxM-10">
          <mxGeometry width="50" height="50" relative="1" as="geometry">
            <mxPoint x="288" y="396" as="sourcePoint" />
            <mxPoint x="446" y="312" as="targetPoint" />
            <Array as="points">
              <mxPoint x="384" y="456" />
              <mxPoint x="396" y="312" />
            </Array>
          </mxGeometry>
        </mxCell>
        <mxCell id="xDTaqTvU7wQpcwqBrBxM-32" value="" style="endArrow=classic;html=1;rounded=0;entryX=0.5;entryY=0;entryDx=0;entryDy=0;" edge="1" parent="1" source="xDTaqTvU7wQpcwqBrBxM-10" target="xDTaqTvU7wQpcwqBrBxM-18">
          <mxGeometry width="50" height="50" relative="1" as="geometry">
            <mxPoint x="396" y="362" as="sourcePoint" />
            <mxPoint x="446" y="312" as="targetPoint" />
          </mxGeometry>
        </mxCell>
        <mxCell id="xDTaqTvU7wQpcwqBrBxM-34" value="" style="endArrow=classic;html=1;rounded=0;exitX=0.004;exitY=0.384;exitDx=0;exitDy=0;entryX=0;entryY=0.5;entryDx=0;entryDy=0;exitPerimeter=0;" edge="1" parent="1" source="xDTaqTvU7wQpcwqBrBxM-36" target="xDTaqTvU7wQpcwqBrBxM-10">
          <mxGeometry width="50" height="50" relative="1" as="geometry">
            <mxPoint x="396" y="362" as="sourcePoint" />
            <mxPoint x="180" y="420" as="targetPoint" />
            <Array as="points">
              <mxPoint x="132" y="611" />
              <mxPoint x="132" y="360" />
            </Array>
          </mxGeometry>
        </mxCell>
        <mxCell id="xDTaqTvU7wQpcwqBrBxM-36" value="&lt;font style=&quot;font-size: 16px;&quot;&gt;Ввод кода с почты&amp;nbsp;&lt;br&gt;&lt;/font&gt;" style="rounded=1;whiteSpace=wrap;html=1;" vertex="1" parent="1">
          <mxGeometry x="228" y="588" width="120" height="60" as="geometry" />
        </mxCell>
        <mxCell id="xDTaqTvU7wQpcwqBrBxM-37" value="" style="endArrow=classic;html=1;rounded=0;entryX=0.5;entryY=0;entryDx=0;entryDy=0;exitX=0.5;exitY=1;exitDx=0;exitDy=0;" edge="1" parent="1" source="xDTaqTvU7wQpcwqBrBxM-18" target="xDTaqTvU7wQpcwqBrBxM-36">
          <mxGeometry width="50" height="50" relative="1" as="geometry">
            <mxPoint x="300" y="402" as="sourcePoint" />
            <mxPoint x="300" y="502" as="targetPoint" />
          </mxGeometry>
        </mxCell>
        <mxCell id="xDTaqTvU7wQpcwqBrBxM-38" value="" style="endArrow=classic;html=1;rounded=0;exitX=0.5;exitY=1;exitDx=0;exitDy=0;entryX=0.5;entryY=0;entryDx=0;entryDy=0;" edge="1" parent="1" source="xDTaqTvU7wQpcwqBrBxM-3" target="xDTaqTvU7wQpcwqBrBxM-10">
          <mxGeometry width="50" height="50" relative="1" as="geometry">
            <mxPoint x="396" y="362" as="sourcePoint" />
            <mxPoint x="446" y="312" as="targetPoint" />
          </mxGeometry>
        </mxCell>
        <mxCell id="xDTaqTvU7wQpcwqBrBxM-39" value="" style="endArrow=classic;html=1;rounded=0;exitX=0.5;exitY=1;exitDx=0;exitDy=0;entryX=0.5;entryY=0;entryDx=0;entryDy=0;" edge="1" parent="1" source="xDTaqTvU7wQpcwqBrBxM-3" target="xDTaqTvU7wQpcwqBrBxM-6">
          <mxGeometry width="50" height="50" relative="1" as="geometry">
            <mxPoint x="437" y="242" as="sourcePoint" />
            <mxPoint x="300" y="342" as="targetPoint" />
          </mxGeometry>
        </mxCell>
        <mxCell id="xDTaqTvU7wQpcwqBrBxM-40" value="&lt;font style=&quot;font-size: 13px;&quot;&gt;Восстановле-&lt;br&gt;ние пароля&lt;/font&gt;" style="text;html=1;strokeColor=none;fillColor=none;align=center;verticalAlign=middle;whiteSpace=wrap;rounded=0;rotation=-90;" vertex="1" parent="1">
          <mxGeometry x="216" y="414" width="109" height="42" as="geometry" />
        </mxCell>
        <mxCell id="xDTaqTvU7wQpcwqBrBxM-43" value="" style="endArrow=classic;html=1;rounded=0;" edge="1" parent="1" source="xDTaqTvU7wQpcwqBrBxM-10" target="xDTaqTvU7wQpcwqBrBxM-44">
          <mxGeometry width="50" height="50" relative="1" as="geometry">
            <mxPoint x="396" y="470" as="sourcePoint" />
            <mxPoint x="444" y="528" as="targetPoint" />
          </mxGeometry>
        </mxCell>
        <mxCell id="xDTaqTvU7wQpcwqBrBxM-44" value="&lt;font style=&quot;font-size: 15px;&quot;&gt;Просмотр профиля&lt;/font&gt;" style="rounded=1;whiteSpace=wrap;html=1;" vertex="1" parent="1">
          <mxGeometry x="395" y="648" width="120" height="60" as="geometry" />
        </mxCell>
        <mxCell id="xDTaqTvU7wQpcwqBrBxM-45" value="&lt;font style=&quot;font-size: 15px;&quot;&gt;Выход из системы&lt;/font&gt;" style="rounded=1;whiteSpace=wrap;html=1;" vertex="1" parent="1">
          <mxGeometry x="396" y="744" width="120" height="60" as="geometry" />
        </mxCell>
        <mxCell id="xDTaqTvU7wQpcwqBrBxM-46" value="" style="endArrow=classic;html=1;rounded=0;exitX=0.5;exitY=1;exitDx=0;exitDy=0;entryX=0.5;entryY=0;entryDx=0;entryDy=0;" edge="1" parent="1" source="xDTaqTvU7wQpcwqBrBxM-44" target="xDTaqTvU7wQpcwqBrBxM-45">
          <mxGeometry width="50" height="50" relative="1" as="geometry">
            <mxPoint x="396" y="734" as="sourcePoint" />
            <mxPoint x="446" y="684" as="targetPoint" />
          </mxGeometry>
        </mxCell>
      </root>
    </mxGraphModel>
  </diagram>
</mxfile>
